HIERARCHY
ROOT Hips
{
	OFFSET 0.00000 0.00000 0.00000
	CHANNELS 6 Xposition Yposition Zposition Zrotation Yrotation Xrotation 
	JOINT LHipJoint
	{
		OFFSET 0 0 0
		CHANNELS 3 Zrotation Yrotation Xrotation
		JOINT LeftUpLeg
		{
			OFFSET 1.35324 -1.81393 0.86676
			CHANNELS 3 Zrotation Yrotation Xrotation
			JOINT LeftLeg
			{
				OFFSET 2.44396 -6.71474 0.00000
				CHANNELS 3 Zrotation Yrotation Xrotation
				JOINT LeftFoot
				{
					OFFSET 2.78389 -7.64869 0.00000
					CHANNELS 3 Zrotation Yrotation Xrotation
					JOINT LeftToeBase
					{
						OFFSET 0.15837 -0.43512 1.94704
						CHANNELS 3 Zrotation Yrotation Xrotation
						End Site
						{
							OFFSET 0.00000 -0.00000 1.00735
						}
					}
				}
			}
		}
	}
	JOINT RHipJoint
	{
		OFFSET 0 0 0
		CHANNELS 3 Zrotation Yrotation Xrotation
		JOINT RightUpLeg
		{
			OFFSET -1.14956 -1.81393 0.86676
			CHANNELS 3 Zrotation Yrotation Xrotation
			JOINT RightLeg
			{
				OFFSET -2.55632 -7.02343 0.00000
				CHANNELS 3 Zrotation Yrotation Xrotation
				JOINT RightFoot
				{
					OFFSET -2.63038 -7.22691 0.00000
					CHANNELS 3 Zrotation Yrotation Xrotation
					JOINT RightToeBase
					{
						OFFSET -0.22277 -0.61205 2.06087
						CHANNELS 3 Zrotation Yrotation Xrotation
						End Site
						{
							OFFSET -0.00000 -0.00000 1.07867
						}
					}
				}
			}
		}
	}
	JOINT LowerBack
	{
		OFFSET 0 0 0
		CHANNELS 3 Zrotation Yrotation Xrotation
		JOINT Spine
		{
			OFFSET -0.05682 2.18266 -0.21665
			CHANNELS 3 Zrotation Yrotation Xrotation
			JOINT Spine1
			{
				OFFSET 0.08791 2.18267 0.00700
				CHANNELS 3 Zrotation Yrotation Xrotation
				JOINT Neck
				{
					OFFSET 0 0 0
					CHANNELS 3 Zrotation Yrotation Xrotation
					JOINT Neck1
					{
						OFFSET -0.14851 1.58495 0.25390
						CHANNELS 3 Zrotation Yrotation Xrotation
						JOINT Head
						{
							OFFSET 0.13566 1.62237 -0.28476
							CHANNELS 3 Zrotation Yrotation Xrotation
							End Site
							{
								OFFSET 0.05601 1.65818 -0.12921
							}
						}
					}
				}
				JOINT LeftShoulder
				{
					OFFSET 0 0 0
					CHANNELS 3 Zrotation Yrotation Xrotation
					JOINT LeftArm
					{
						OFFSET 3.23337 0.97114 -0.51072
						CHANNELS 3 Zrotation Yrotation Xrotation
						JOINT LeftForeArm
						{
							OFFSET 5.19964 -0.00068 -0.00051
							CHANNELS 3 Zrotation Yrotation Xrotation
							JOINT LeftHand
							{
								OFFSET 3.32189 -0.00000 0.00000
								CHANNELS 3 Zrotation Yrotation Xrotation
								JOINT LeftFingerBase
								{
									OFFSET 0 0 0
									CHANNELS 3 Zrotation Yrotation Xrotation
									JOINT LeftHandIndex1
									{
										OFFSET 0.64562 -0.00000 0.00000
										CHANNELS 3 Zrotation Yrotation Xrotation
										End Site
										{
											OFFSET 0.52051 -0.00000 0.00000
										}
									}
								}
								JOINT LThumb
								{
									OFFSET 0 0 0
									CHANNELS 3 Zrotation Yrotation Xrotation
									End Site
									{
										OFFSET 0.52846 -0.00000 0.52846
									}
								}
							}
						}
					}
				}
				JOINT RightShoulder
				{
					OFFSET 0 0 0
					CHANNELS 3 Zrotation Yrotation Xrotation
					JOINT RightArm
					{
						OFFSET -2.95712 1.24697 -0.52388
						CHANNELS 3 Zrotation Yrotation Xrotation
						JOINT RightForeArm
						{
							OFFSET -5.65950 -0.00000 -0.00000
							CHANNELS 3 Zrotation Yrotation Xrotation
							JOINT RightHand
							{
								OFFSET -3.37604 -0.00000 -0.00000
								CHANNELS 3 Zrotation Yrotation Xrotation
								JOINT RightFingerBase
								{
									OFFSET 0 0 0
									CHANNELS 3 Zrotation Yrotation Xrotation
									JOINT RightHandIndex1
									{
										OFFSET -0.82470 -0.00000 -0.00000
										CHANNELS 3 Zrotation Yrotation Xrotation
										End Site
										{
											OFFSET -0.66490 -0.00000 -0.00000
										}
									}
								}
								JOINT RThumb
								{
									OFFSET 0 0 0
									CHANNELS 3 Zrotation Yrotation Xrotation
									End Site
									{
										OFFSET -0.67505 -0.00000 0.67505
									}
								}
							}
						}
					}
				}
			}
		}
	}
}
MOTION
Frames: 6
Frame Time: .0083333
9.5234 17.7534 -14.1142 0 0 0 0 0 0 -21 0 0 0 0 0 0 0 0 0 0 0 0 0 0 21 0 0 0 0 0 0 0 0 0 0 0 0 0 0 0 0 0 0 0 0 0 0 -16 0 0 21 0 0 11 0 0 0 -8 0 0 0 0 0 0 0 0 0 0 0 0 0 0 0 0 0 0 0 0 8 0 0 0 0 0 0 0 0 0 0 0 0 0 0 0 0 0
9.5234 17.7534 -14.1142 -5.5549 -37.4770 3.5263 0.0000 0.0000 0.0000 -17.0809 -2.5253 -6.5556 3.3388 11.2242 33.0399 1.8354 4.9017 -27.7362 0.0046 0.4375 1.2022 0.0000 0.0000 0.0000 16.1431 11.7374 -9.7415 -3.3582 -11.2535 33.1398 -0.9557 -0.3145 -18.5956 -0.1287 -2.3121 6.3691 -1.7070 -0.7316 1.8572 4.1372 -0.9593 -1.3109 5.2775 -0.4266 -2.2942 -19.5860 -8.3112 -7.8737 13.1159 -11.7888 22.9033 6.5063 -6.0147 10.6025 0.0000 0.0000 0.0000 -87.3557 1.2201 25.6054 13.9739 -22.6974 -2.8180 -0.0000 -0.0000 15.0991 -0.5882 31.2718 -0.3054 -7.1250 0.0000 -0.0000 -35.3676 57.5268 -11.8299 0.0000 0.0000 0.0000 83.1396 -5.1493 3.3662 -14.5008 23.4461 -3.0245 0.0000 -0.0000 -9.7981 -10.3338 16.6948 -2.9985 7.1250 -0.0000 -0.0000 11.6132 -13.2746 8.8234
9.5233 17.7516 -14.1114 -5.4751 -37.5449 3.4447 0.0000 0.0000 0.0000 -17.1497 -2.3403 -6.5271 3.3260 11.2050 32.9742 1.8270 4.9242 -27.6912 0.0030 0.3525 0.9684 0.0000 0.0000 0.0000 16.0549 11.7900 -9.7065 -3.3703 -11.2716 33.2013 -0.9752 -0.0765 -18.6995 -0.1773 -2.7123 7.4788 -1.7881 -0.7104 1.8242 4.0747 -0.9354 -1.2391 5.2554 -0.4164 -2.2036 -19.2808 -8.3531 -7.9961 12.9569 -11.8257 22.8216 6.3820 -6.0125 10.5708 0.0000 -0.0000 0.0000 -87.2662 1.1079 25.8425 13.9153 -22.6135 -2.7955 -0.0000 -0.0000 14.9394 -0.4287 31.2802 -0.2226 -7.1250 0.0000 -0.0000 -35.2238 57.5677 -11.8093 0.0000 -0.0000 0.0000 83.0972 -5.1262 3.5354 -14.5702 23.5439 -3.0522 0.0000 -0.0000 -10.0887 -10.4414 16.7092 -3.0329 7.1250 -0.0000 -0.0000 11.5420 -13.2519 8.7725
9.5249 17.7492 -14.1064 -5.3054 -37.5282 3.3061 0.0000 0.0000 0.0000 -17.3230 -2.3422 -6.4689 3.3238 11.2017 32.9630 1.8347 4.8850 -27.7228 0.0039 0.4038 1.1095 0.0000 0.0000 0.0000 15.8793 11.7022 -9.6669 -3.3703 -11.2716 33.2013 -0.9866 0.0630 -18.7603 -0.1883 -2.7948 7.7079 -1.9021 -0.7591 1.7471 4.0394 -1.0055 -1.1801 5.2832 -0.4530 -2.0908 -18.8646 -8.3685 -8.3579 12.4084 -11.7294 23.0413 6.1122 -5.9706 10.6386 0.0000 0.0000 0.0000 -87.3032 1.0467 25.9516 13.8968 -22.5869 -2.7883 -0.0000 -0.0000 14.4341 -0.0170 31.1631 -0.0088 -7.1250 0.0000 -0.0000 -34.7266 57.5596 -11.6067 0.0000 0.0000 0.0000 83.0592 -4.9752 3.4385 -14.5612 23.5312 -3.0486 0.0000 -0.0000 -10.0558 -10.6729 16.6714 -3.0948 7.1250 -0.0000 -0.0000 11.3895 -13.2715 8.6469
9.5275 17.7473 -14.1029 -5.3724 -37.5022 3.3290 0.0000 0.0000 0.0000 -17.3106 -2.4636 -6.3780 3.3176 11.1923 32.9312 1.8351 4.9432 -27.7555 0.0064 0.5156 1.4168 0.0000 0.0000 0.0000 15.9376 11.7160 -9.6294 -3.3728 -11.2754 33.2145 -0.9840 0.0032 -18.7560 -0.1742 -2.6887 7.4132 -1.8195 -0.8109 1.6990 4.0850 -1.0725 -1.1808 5.2851 -0.4884 -2.0580 -18.4460 -8.4206 -8.9674 11.6471 -11.6177 23.5681 5.7634 -5.9388 10.8543 0.0000 0.0000 0.0000 -87.4447 1.1410 25.8753 13.9267 -22.6298 -2.7998 -0.0000 -0.0000 14.1413 0.4320 31.0465 0.2228 -7.1250 0.0000 -0.0000 -34.1941 57.5593 -11.3986 0.0000 0.0000 0.0000 82.9753 -4.9039 3.2081 -14.5590 23.5282 -3.0477 0.0000 -0.0000 -10.0436 -10.5676 16.6329 -3.0567 7.1250 -0.0000 -0.0000 11.4595 -13.3180 8.6909
9.5297 17.7455 -14.0978 -5.3155 -37.5437 3.2707 0.0000 0.0000 0.0000 -17.4190 -2.5108 -6.2894 3.3131 11.1854 32.9077 1.8294 5.0569 -27.7765 0.0068 0.5329 1.4644 0.0000 0.0000 0.0000 15.8652 11.7536 -9.5787 -3.3724 -11.2748 33.2123 -0.9852 0.0688 -18.7450 -0.1902 -2.8087 7.7466 -1.7972 -0.7970 1.6371 4.0533 -1.0540 -1.1672 5.2369 -0.4807 -2.0119 -18.2177 -8.4668 -9.2030 11.3023 -11.6064 23.7310 5.5920 -5.9399 10.9211 -0.0000 0.0000 0.0000 -87.5010 1.1512 25.8160 13.8906 -22.5781 -2.7860 -0.0000 -0.0000 14.1339 0.7477 30.9713 0.3848 -7.1250 0.0000 -0.0000 -33.8256 57.5644 -11.2600 -0.0000 0.0000 0.0000 82.9472 -4.8817 2.9539 -14.5794 23.5569 -3.0559 0.0000 -0.0000 -10.0130 -10.4734 16.6337 -3.0291 7.1250 -0.0000 -0.0000 11.5217 -13.3244 8.7385
